%
M48
M72
T01C0.01400
T02C0.01550
T03C0.02756
T04C0.03346
T05C0.03500
T06C0.03937
T07C0.04000
T08C0.04528
%
T01
X32921Y32008
X38852Y40188
X47882Y41457
X57724Y41532
X54969Y34370
X74584Y38594
X90402Y44606
X99876Y49243
X93721Y53806
X88603Y53806
X73079Y49725
X42764Y60748
X40795Y55630
X39220Y65866
X42370Y70197
X52616Y72320
X66386Y63898
X95913Y76852
X95561Y83073
X59102Y90079
X39614Y82008
X31356Y78619
X25057Y77438
X35718Y85841
X32962Y94503
X35677Y97781
X41583Y100906
X49457Y99725
X54181Y100512
X69983Y110657
X54181Y114685
X27016Y115079
X25756Y121110
X51819Y132008
X78197Y133583
X106543Y141876
X95126Y118229
X83356Y116310
X108118Y105605
X99482Y101362
X38433Y45394
X99356Y28310
X107724Y44606
T02
X72937Y72484
X61661Y81209
X44174Y88353
X59170Y102003
X39307Y114059
X81724Y86103
T03
X102950Y79151
X102950Y69309
X102950Y59466
T04
X51844Y144912
X32159Y144912
T05
X55767Y155686
X82567Y155686
T06
X72291Y127953
X72291Y117953
X26622Y83583
X36465Y73740
X26622Y63898
T07
X28000Y25984
X38000Y25984
X48000Y25984
X58000Y25984
X68000Y25984
X78000Y25984
X115992Y28977
X115992Y38977
X115992Y48977
X115992Y58977
X115992Y68977
X115992Y78977
X115992Y88977
X115992Y98977
X115992Y108977
X115992Y118977
X115992Y128977
X115992Y138977
T08
X55781Y155542
X28222Y155542
M30
