G75*
%MOIN*%
%OFA0B0*%
%FSLAX25Y25*%
%IPPOS*%
%LPD*%
%AMOC8*
5,1,8,0,0,1.08239X$1,22.5*
%
%ADD10R,0.03937X0.04331*%
%ADD11R,0.04724X0.02165*%
%ADD12R,0.05906X0.05118*%
%ADD13R,0.04724X0.04724*%
%ADD14R,0.04803X0.03583*%
%ADD15C,0.00492*%
%ADD16R,0.12598X0.12598*%
%ADD17R,0.06693X0.02756*%
%ADD18R,0.05118X0.04724*%
%ADD19R,0.02165X0.04724*%
%ADD20R,0.05118X0.05906*%
%ADD21R,0.01969X0.00984*%
%ADD22R,0.00984X0.01969*%
%ADD23R,0.05906X0.03543*%
%ADD24R,0.04331X0.03937*%
%ADD25R,0.05512X0.03937*%
%ADD26R,0.01575X0.05512*%
D10*
X0084102Y0073150D03*
X0084102Y0079843D03*
X0057827Y0120205D03*
X0051307Y0120288D03*
X0045020Y0120288D03*
X0038732Y0120288D03*
X0032319Y0120500D03*
X0032319Y0127193D03*
X0038732Y0126980D03*
X0045020Y0126980D03*
X0051307Y0126980D03*
X0057827Y0126898D03*
D11*
X0051425Y0111874D03*
X0041189Y0111874D03*
X0041189Y0108134D03*
X0041189Y0104394D03*
X0051425Y0104394D03*
D12*
X0059782Y0102819D03*
X0059782Y0110299D03*
X0034307Y0111374D03*
X0034307Y0103894D03*
X0082921Y0125906D03*
X0082921Y0133386D03*
X0098669Y0142441D03*
X0098669Y0149921D03*
X0106543Y0129055D03*
X0106543Y0121575D03*
X0049417Y0061973D03*
X0049417Y0054492D03*
X0068000Y0050662D03*
X0068000Y0043181D03*
X0033290Y0045210D03*
X0026203Y0046822D03*
X0026203Y0039342D03*
X0033290Y0037729D03*
D13*
X0035547Y0134878D03*
X0027280Y0134878D03*
X0057094Y0135187D03*
X0065362Y0135187D03*
X0105609Y0153879D03*
X0113877Y0153879D03*
D14*
X0064803Y0129506D03*
X0064803Y0116612D03*
D15*
X0064073Y0086868D02*
X0063581Y0086868D01*
X0064073Y0086868D02*
X0064073Y0084604D01*
X0063581Y0084604D01*
X0063581Y0086868D01*
X0063581Y0085095D02*
X0064073Y0085095D01*
X0064073Y0085586D02*
X0063581Y0085586D01*
X0063581Y0086077D02*
X0064073Y0086077D01*
X0064073Y0086568D02*
X0063581Y0086568D01*
X0062104Y0086868D02*
X0061612Y0086868D01*
X0062104Y0086868D02*
X0062104Y0084604D01*
X0061612Y0084604D01*
X0061612Y0086868D01*
X0061612Y0085095D02*
X0062104Y0085095D01*
X0062104Y0085586D02*
X0061612Y0085586D01*
X0061612Y0086077D02*
X0062104Y0086077D01*
X0062104Y0086568D02*
X0061612Y0086568D01*
X0060136Y0086868D02*
X0059644Y0086868D01*
X0060136Y0086868D02*
X0060136Y0084604D01*
X0059644Y0084604D01*
X0059644Y0086868D01*
X0059644Y0085095D02*
X0060136Y0085095D01*
X0060136Y0085586D02*
X0059644Y0085586D01*
X0059644Y0086077D02*
X0060136Y0086077D01*
X0060136Y0086568D02*
X0059644Y0086568D01*
X0058167Y0086868D02*
X0057675Y0086868D01*
X0058167Y0086868D02*
X0058167Y0084604D01*
X0057675Y0084604D01*
X0057675Y0086868D01*
X0057675Y0085095D02*
X0058167Y0085095D01*
X0058167Y0085586D02*
X0057675Y0085586D01*
X0057675Y0086077D02*
X0058167Y0086077D01*
X0058167Y0086568D02*
X0057675Y0086568D01*
X0056199Y0086868D02*
X0055707Y0086868D01*
X0056199Y0086868D02*
X0056199Y0084604D01*
X0055707Y0084604D01*
X0055707Y0086868D01*
X0055707Y0085095D02*
X0056199Y0085095D01*
X0056199Y0085586D02*
X0055707Y0085586D01*
X0055707Y0086077D02*
X0056199Y0086077D01*
X0056199Y0086568D02*
X0055707Y0086568D01*
X0054230Y0086868D02*
X0053738Y0086868D01*
X0054230Y0086868D02*
X0054230Y0084604D01*
X0053738Y0084604D01*
X0053738Y0086868D01*
X0053738Y0085095D02*
X0054230Y0085095D01*
X0054230Y0085586D02*
X0053738Y0085586D01*
X0053738Y0086077D02*
X0054230Y0086077D01*
X0054230Y0086568D02*
X0053738Y0086568D01*
X0052262Y0086868D02*
X0051770Y0086868D01*
X0052262Y0086868D02*
X0052262Y0084604D01*
X0051770Y0084604D01*
X0051770Y0086868D01*
X0051770Y0085095D02*
X0052262Y0085095D01*
X0052262Y0085586D02*
X0051770Y0085586D01*
X0051770Y0086077D02*
X0052262Y0086077D01*
X0052262Y0086568D02*
X0051770Y0086568D01*
X0050293Y0086868D02*
X0049801Y0086868D01*
X0050293Y0086868D02*
X0050293Y0084604D01*
X0049801Y0084604D01*
X0049801Y0086868D01*
X0049801Y0085095D02*
X0050293Y0085095D01*
X0050293Y0085586D02*
X0049801Y0085586D01*
X0049801Y0086077D02*
X0050293Y0086077D01*
X0050293Y0086568D02*
X0049801Y0086568D01*
X0048817Y0083620D02*
X0046553Y0083620D01*
X0048817Y0083620D02*
X0048817Y0083128D01*
X0046553Y0083128D01*
X0046553Y0083620D01*
X0046553Y0083619D02*
X0048817Y0083619D01*
X0048817Y0081652D02*
X0046553Y0081652D01*
X0048817Y0081652D02*
X0048817Y0081160D01*
X0046553Y0081160D01*
X0046553Y0081652D01*
X0046553Y0081651D02*
X0048817Y0081651D01*
X0048817Y0079683D02*
X0046553Y0079683D01*
X0048817Y0079683D02*
X0048817Y0079191D01*
X0046553Y0079191D01*
X0046553Y0079683D01*
X0046553Y0079682D02*
X0048817Y0079682D01*
X0048817Y0077715D02*
X0046553Y0077715D01*
X0048817Y0077715D02*
X0048817Y0077223D01*
X0046553Y0077223D01*
X0046553Y0077715D01*
X0046553Y0077714D02*
X0048817Y0077714D01*
X0048817Y0075746D02*
X0046553Y0075746D01*
X0048817Y0075746D02*
X0048817Y0075254D01*
X0046553Y0075254D01*
X0046553Y0075746D01*
X0046553Y0075745D02*
X0048817Y0075745D01*
X0048817Y0073778D02*
X0046553Y0073778D01*
X0048817Y0073778D02*
X0048817Y0073286D01*
X0046553Y0073286D01*
X0046553Y0073778D01*
X0046553Y0073777D02*
X0048817Y0073777D01*
X0048817Y0071809D02*
X0046553Y0071809D01*
X0048817Y0071809D02*
X0048817Y0071317D01*
X0046553Y0071317D01*
X0046553Y0071809D01*
X0046553Y0071808D02*
X0048817Y0071808D01*
X0048817Y0069841D02*
X0046553Y0069841D01*
X0048817Y0069841D02*
X0048817Y0069349D01*
X0046553Y0069349D01*
X0046553Y0069841D01*
X0046553Y0069840D02*
X0048817Y0069840D01*
X0049801Y0068364D02*
X0050293Y0068364D01*
X0050293Y0066100D01*
X0049801Y0066100D01*
X0049801Y0068364D01*
X0049801Y0066591D02*
X0050293Y0066591D01*
X0050293Y0067082D02*
X0049801Y0067082D01*
X0049801Y0067573D02*
X0050293Y0067573D01*
X0050293Y0068064D02*
X0049801Y0068064D01*
X0051770Y0068364D02*
X0052262Y0068364D01*
X0052262Y0066100D01*
X0051770Y0066100D01*
X0051770Y0068364D01*
X0051770Y0066591D02*
X0052262Y0066591D01*
X0052262Y0067082D02*
X0051770Y0067082D01*
X0051770Y0067573D02*
X0052262Y0067573D01*
X0052262Y0068064D02*
X0051770Y0068064D01*
X0053738Y0068364D02*
X0054230Y0068364D01*
X0054230Y0066100D01*
X0053738Y0066100D01*
X0053738Y0068364D01*
X0053738Y0066591D02*
X0054230Y0066591D01*
X0054230Y0067082D02*
X0053738Y0067082D01*
X0053738Y0067573D02*
X0054230Y0067573D01*
X0054230Y0068064D02*
X0053738Y0068064D01*
X0055707Y0068364D02*
X0056199Y0068364D01*
X0056199Y0066100D01*
X0055707Y0066100D01*
X0055707Y0068364D01*
X0055707Y0066591D02*
X0056199Y0066591D01*
X0056199Y0067082D02*
X0055707Y0067082D01*
X0055707Y0067573D02*
X0056199Y0067573D01*
X0056199Y0068064D02*
X0055707Y0068064D01*
X0057675Y0068364D02*
X0058167Y0068364D01*
X0058167Y0066100D01*
X0057675Y0066100D01*
X0057675Y0068364D01*
X0057675Y0066591D02*
X0058167Y0066591D01*
X0058167Y0067082D02*
X0057675Y0067082D01*
X0057675Y0067573D02*
X0058167Y0067573D01*
X0058167Y0068064D02*
X0057675Y0068064D01*
X0059644Y0068364D02*
X0060136Y0068364D01*
X0060136Y0066100D01*
X0059644Y0066100D01*
X0059644Y0068364D01*
X0059644Y0066591D02*
X0060136Y0066591D01*
X0060136Y0067082D02*
X0059644Y0067082D01*
X0059644Y0067573D02*
X0060136Y0067573D01*
X0060136Y0068064D02*
X0059644Y0068064D01*
X0061612Y0068364D02*
X0062104Y0068364D01*
X0062104Y0066100D01*
X0061612Y0066100D01*
X0061612Y0068364D01*
X0061612Y0066591D02*
X0062104Y0066591D01*
X0062104Y0067082D02*
X0061612Y0067082D01*
X0061612Y0067573D02*
X0062104Y0067573D01*
X0062104Y0068064D02*
X0061612Y0068064D01*
X0063581Y0068364D02*
X0064073Y0068364D01*
X0064073Y0066100D01*
X0063581Y0066100D01*
X0063581Y0068364D01*
X0063581Y0066591D02*
X0064073Y0066591D01*
X0064073Y0067082D02*
X0063581Y0067082D01*
X0063581Y0067573D02*
X0064073Y0067573D01*
X0064073Y0068064D02*
X0063581Y0068064D01*
X0065057Y0069841D02*
X0067321Y0069841D01*
X0067321Y0069349D01*
X0065057Y0069349D01*
X0065057Y0069841D01*
X0065057Y0069840D02*
X0067321Y0069840D01*
X0067321Y0071809D02*
X0065057Y0071809D01*
X0067321Y0071809D02*
X0067321Y0071317D01*
X0065057Y0071317D01*
X0065057Y0071809D01*
X0065057Y0071808D02*
X0067321Y0071808D01*
X0067321Y0073778D02*
X0065057Y0073778D01*
X0067321Y0073778D02*
X0067321Y0073286D01*
X0065057Y0073286D01*
X0065057Y0073778D01*
X0065057Y0073777D02*
X0067321Y0073777D01*
X0067321Y0075746D02*
X0065057Y0075746D01*
X0067321Y0075746D02*
X0067321Y0075254D01*
X0065057Y0075254D01*
X0065057Y0075746D01*
X0065057Y0075745D02*
X0067321Y0075745D01*
X0067321Y0077715D02*
X0065057Y0077715D01*
X0067321Y0077715D02*
X0067321Y0077223D01*
X0065057Y0077223D01*
X0065057Y0077715D01*
X0065057Y0077714D02*
X0067321Y0077714D01*
X0067321Y0079683D02*
X0065057Y0079683D01*
X0067321Y0079683D02*
X0067321Y0079191D01*
X0065057Y0079191D01*
X0065057Y0079683D01*
X0065057Y0079682D02*
X0067321Y0079682D01*
X0067321Y0081652D02*
X0065057Y0081652D01*
X0067321Y0081652D02*
X0067321Y0081160D01*
X0065057Y0081160D01*
X0065057Y0081652D01*
X0065057Y0081651D02*
X0067321Y0081651D01*
X0067321Y0083620D02*
X0065057Y0083620D01*
X0067321Y0083620D02*
X0067321Y0083128D01*
X0065057Y0083128D01*
X0065057Y0083620D01*
X0065057Y0083619D02*
X0067321Y0083619D01*
D16*
X0056937Y0076484D03*
D17*
X0074937Y0077760D03*
X0074937Y0082484D03*
X0074937Y0087209D03*
D18*
X0027807Y0096016D03*
X0027807Y0104016D03*
D19*
X0090992Y0124527D03*
X0098472Y0124527D03*
X0098472Y0134764D03*
X0094732Y0134764D03*
X0090992Y0134764D03*
D20*
X0090992Y0142244D03*
X0083512Y0142244D03*
X0034299Y0055236D03*
X0026819Y0055236D03*
D21*
X0042173Y0045394D03*
X0042173Y0043425D03*
X0042173Y0041457D03*
X0042173Y0039488D03*
X0042173Y0037520D03*
X0052803Y0037520D03*
X0052803Y0039488D03*
X0052803Y0041457D03*
X0052803Y0043425D03*
X0052803Y0045394D03*
D22*
X0045520Y0036142D03*
X0047488Y0036142D03*
X0049457Y0036142D03*
X0049457Y0046772D03*
X0047488Y0046772D03*
X0045520Y0046772D03*
D23*
X0087843Y0040473D03*
X0107134Y0040473D03*
X0107134Y0027480D03*
X0087843Y0027480D03*
X0086268Y0097597D03*
X0105559Y0097597D03*
X0105559Y0110589D03*
X0086268Y0110589D03*
D24*
X0079181Y0096575D03*
X0072488Y0096575D03*
D25*
X0076622Y0068032D03*
X0085283Y0064291D03*
X0076622Y0060551D03*
D26*
X0047120Y0145109D03*
X0044561Y0145109D03*
X0042002Y0145109D03*
X0039443Y0145109D03*
X0036883Y0145109D03*
M02*
