G75*
%MOIN*%
%OFA0B0*%
%FSLAX25Y25*%
%IPPOS*%
%LPD*%
%AMOC8*
5,1,8,0,0,1.08239X$1,22.5*
%
%ADD10OC8,0.07000*%
%ADD11R,0.03937X0.18110*%
%ADD12R,0.06299X0.13386*%
%ADD13C,0.07000*%
%ADD14C,0.05906*%
%ADD15C,0.04356*%
%ADD16C,0.06791*%
%ADD17C,0.05020*%
%ADD18R,0.04724X0.09843*%
%ADD19C,0.01200*%
%ADD20C,0.03150*%
%ADD21OC8,0.03000*%
%ADD22C,0.02400*%
%ADD23C,0.00800*%
%ADD24C,0.03200*%
%ADD25C,0.01000*%
%ADD26C,0.01600*%
%ADD27C,0.04000*%
D10*
X0028000Y0025984D03*
X0038000Y0025984D03*
X0048000Y0025984D03*
X0058000Y0025984D03*
X0068000Y0025984D03*
X0078000Y0025984D03*
D11*
X0099457Y0133977D03*
X0107331Y0133977D03*
D12*
X0116780Y0154449D03*
X0090008Y0154449D03*
D13*
X0115992Y0138977D03*
X0115992Y0128977D03*
X0115992Y0118977D03*
X0115992Y0108977D03*
X0115992Y0098977D03*
X0115992Y0088977D03*
X0115992Y0078977D03*
X0115992Y0068977D03*
X0115992Y0058977D03*
X0115992Y0048977D03*
X0115992Y0038977D03*
X0115992Y0028977D03*
X0072291Y0117953D03*
X0072291Y0127953D03*
D14*
X0026622Y0083583D03*
X0036465Y0073740D03*
X0026622Y0063898D03*
D15*
X0102950Y0059466D03*
X0102950Y0069309D03*
X0102950Y0079151D03*
D16*
X0055781Y0155542D03*
X0028222Y0155542D03*
D17*
X0032159Y0144912D03*
X0051844Y0144912D03*
D18*
X0059367Y0144936D03*
X0069167Y0144936D03*
X0078967Y0144936D03*
D19*
X0043100Y0025584D02*
X0043100Y0025153D01*
X0043100Y0025153D01*
X0043100Y0028014D01*
X0045970Y0030884D01*
X0046791Y0030884D01*
X0040220Y0037455D01*
X0040053Y0037288D01*
X0037651Y0037288D01*
X0035952Y0038986D01*
X0035952Y0041389D01*
X0037651Y0043088D01*
X0040053Y0043088D01*
X0040570Y0042571D01*
X0040570Y0042617D01*
X0040553Y0043341D01*
X0040570Y0043359D01*
X0040570Y0052730D01*
X0039594Y0052730D01*
X0037895Y0054429D01*
X0037895Y0056630D01*
X0032922Y0061604D01*
X0031809Y0062717D01*
X0031809Y0065431D01*
X0027451Y0069478D01*
X0027410Y0069478D01*
X0026878Y0070010D01*
X0026327Y0070521D01*
X0026326Y0070562D01*
X0026297Y0070591D01*
X0026297Y0071343D01*
X0026269Y0072094D01*
X0026297Y0072124D01*
X0026297Y0079230D01*
X0025756Y0079230D01*
X0024156Y0079893D01*
X0023898Y0080152D01*
X0023898Y0067546D01*
X0024236Y0067792D01*
X0024874Y0068117D01*
X0025556Y0068338D01*
X0026238Y0068446D01*
X0026238Y0064282D01*
X0027006Y0064282D01*
X0027006Y0068446D01*
X0027688Y0068338D01*
X0028370Y0068117D01*
X0029008Y0067792D01*
X0029588Y0067370D01*
X0030095Y0066864D01*
X0030516Y0066284D01*
X0030841Y0065645D01*
X0031063Y0064964D01*
X0031171Y0064282D01*
X0027006Y0064282D01*
X0027006Y0063514D01*
X0031171Y0063514D01*
X0031063Y0062832D01*
X0030841Y0062150D01*
X0030516Y0061512D01*
X0030095Y0060932D01*
X0029588Y0060425D01*
X0029008Y0060004D01*
X0028370Y0059679D01*
X0027688Y0059457D01*
X0027006Y0059349D01*
X0027006Y0063513D01*
X0026238Y0063513D01*
X0026238Y0059349D01*
X0025556Y0059457D01*
X0024874Y0059679D01*
X0024236Y0060004D01*
X0023898Y0060250D01*
X0023898Y0055782D01*
X0032801Y0046878D01*
X0032943Y0046878D01*
X0034821Y0045000D01*
X0034821Y0034209D01*
X0035821Y0033209D01*
X0035821Y0031018D01*
X0035888Y0031084D01*
X0037600Y0031084D01*
X0037600Y0026384D01*
X0037600Y0025584D01*
X0032900Y0025584D01*
X0028400Y0025584D01*
X0028400Y0026384D01*
X0037600Y0026384D01*
X0038400Y0026384D01*
X0043100Y0026384D01*
X0043100Y0028097D01*
X0040112Y0031084D01*
X0038400Y0031084D01*
X0038400Y0026384D01*
X0038400Y0025584D01*
X0043100Y0025584D01*
X0043100Y0026101D02*
X0038400Y0026101D01*
X0037600Y0026101D02*
X0028400Y0026101D01*
X0028400Y0026384D02*
X0027600Y0026384D01*
X0027600Y0031084D01*
X0025888Y0031084D01*
X0023537Y0028734D01*
X0023537Y0051051D01*
X0030256Y0044333D01*
X0030256Y0044191D01*
X0031021Y0043426D01*
X0031021Y0034209D01*
X0030021Y0033209D01*
X0030021Y0031084D01*
X0028400Y0031084D01*
X0028400Y0026384D01*
X0028400Y0027300D02*
X0027600Y0027300D01*
X0027600Y0028498D02*
X0028400Y0028498D01*
X0028400Y0029697D02*
X0027600Y0029697D01*
X0027600Y0030895D02*
X0028400Y0030895D01*
X0030021Y0032094D02*
X0023537Y0032094D01*
X0023537Y0033292D02*
X0030104Y0033292D01*
X0031021Y0034491D02*
X0023537Y0034491D01*
X0023537Y0035689D02*
X0031021Y0035689D01*
X0031021Y0036888D02*
X0023537Y0036888D01*
X0023537Y0038086D02*
X0031021Y0038086D01*
X0031021Y0039285D02*
X0023537Y0039285D01*
X0023537Y0040484D02*
X0031021Y0040484D01*
X0031021Y0041682D02*
X0023537Y0041682D01*
X0023537Y0042881D02*
X0031021Y0042881D01*
X0030368Y0044079D02*
X0023537Y0044079D01*
X0023537Y0045278D02*
X0029311Y0045278D01*
X0028112Y0046476D02*
X0023537Y0046476D01*
X0023537Y0047675D02*
X0026914Y0047675D01*
X0025715Y0048873D02*
X0023537Y0048873D01*
X0023537Y0050072D02*
X0024517Y0050072D01*
X0028409Y0051270D02*
X0040570Y0051270D01*
X0040570Y0050072D02*
X0029608Y0050072D01*
X0030806Y0048873D02*
X0040570Y0048873D01*
X0040570Y0047675D02*
X0032005Y0047675D01*
X0033345Y0046476D02*
X0040570Y0046476D01*
X0040570Y0045278D02*
X0034543Y0045278D01*
X0034821Y0044079D02*
X0040570Y0044079D01*
X0040564Y0042881D02*
X0040260Y0042881D01*
X0037444Y0042881D02*
X0034821Y0042881D01*
X0034821Y0041682D02*
X0036245Y0041682D01*
X0035952Y0040484D02*
X0034821Y0040484D01*
X0034821Y0039285D02*
X0035952Y0039285D01*
X0036852Y0038086D02*
X0034821Y0038086D01*
X0034821Y0036888D02*
X0040787Y0036888D01*
X0041986Y0035689D02*
X0034821Y0035689D01*
X0034821Y0034491D02*
X0043184Y0034491D01*
X0044383Y0033292D02*
X0035738Y0033292D01*
X0035821Y0032094D02*
X0045581Y0032094D01*
X0046780Y0030895D02*
X0040301Y0030895D01*
X0041500Y0029697D02*
X0044783Y0029697D01*
X0043584Y0028498D02*
X0042698Y0028498D01*
X0043100Y0027300D02*
X0043100Y0027300D01*
X0038400Y0027300D02*
X0037600Y0027300D01*
X0037600Y0028498D02*
X0038400Y0028498D01*
X0038400Y0029697D02*
X0037600Y0029697D01*
X0037600Y0030895D02*
X0038400Y0030895D01*
X0025699Y0030895D02*
X0023537Y0030895D01*
X0023537Y0029697D02*
X0024500Y0029697D01*
X0048490Y0039285D02*
X0055871Y0039285D01*
X0056523Y0038632D02*
X0058926Y0038632D01*
X0060624Y0040331D01*
X0060624Y0041377D01*
X0060967Y0041720D01*
X0061502Y0042154D01*
X0061514Y0042266D01*
X0061593Y0042345D01*
X0061593Y0043035D01*
X0061664Y0043720D01*
X0061593Y0043807D01*
X0061593Y0047825D01*
X0070878Y0047825D01*
X0071878Y0046825D01*
X0074280Y0046825D01*
X0075956Y0048501D01*
X0075956Y0042270D01*
X0078629Y0039597D01*
X0072358Y0033326D01*
X0057868Y0033326D01*
X0057868Y0035571D01*
X0056170Y0037270D01*
X0053767Y0037270D01*
X0052667Y0036170D01*
X0051753Y0036170D01*
X0044170Y0043408D01*
X0044170Y0054801D01*
X0043695Y0055276D01*
X0043695Y0056831D01*
X0042678Y0057848D01*
X0042977Y0057848D01*
X0047489Y0053336D01*
X0050550Y0053336D01*
X0056062Y0047825D01*
X0057793Y0047825D01*
X0057793Y0044432D01*
X0056523Y0044432D01*
X0054824Y0042734D01*
X0054824Y0040331D01*
X0056523Y0038632D01*
X0054824Y0040484D02*
X0047234Y0040484D01*
X0045978Y0041682D02*
X0054824Y0041682D01*
X0054971Y0042881D02*
X0044723Y0042881D01*
X0044170Y0044079D02*
X0056170Y0044079D01*
X0057793Y0045278D02*
X0044170Y0045278D01*
X0044170Y0046476D02*
X0057793Y0046476D01*
X0057793Y0047675D02*
X0044170Y0047675D01*
X0044170Y0048873D02*
X0055013Y0048873D01*
X0053815Y0050072D02*
X0044170Y0050072D01*
X0044170Y0051270D02*
X0052616Y0051270D01*
X0051418Y0052469D02*
X0044170Y0052469D01*
X0044170Y0053667D02*
X0047158Y0053667D01*
X0045959Y0054866D02*
X0044105Y0054866D01*
X0043695Y0056064D02*
X0044761Y0056064D01*
X0043562Y0057263D02*
X0043264Y0057263D01*
X0039864Y0060036D02*
X0035609Y0064291D01*
X0035609Y0065514D01*
X0035636Y0065544D01*
X0035609Y0066295D01*
X0035609Y0067047D01*
X0035580Y0067076D01*
X0035578Y0067117D01*
X0035027Y0067628D01*
X0034496Y0068160D01*
X0034455Y0068160D01*
X0030097Y0072207D01*
X0030097Y0080902D01*
X0030312Y0081117D01*
X0030975Y0082717D01*
X0030975Y0084449D01*
X0030625Y0085293D01*
X0032527Y0087195D01*
X0041434Y0087195D01*
X0041652Y0086668D01*
X0042489Y0085831D01*
X0043582Y0085378D01*
X0044766Y0085378D01*
X0045859Y0085831D01*
X0046696Y0086668D01*
X0046756Y0086812D01*
X0046756Y0083503D01*
X0058699Y0071560D01*
X0059988Y0070271D01*
X0070943Y0070271D01*
X0071252Y0069962D01*
X0072345Y0069509D01*
X0073529Y0069509D01*
X0074228Y0069799D01*
X0074228Y0069463D01*
X0072098Y0067333D01*
X0071054Y0066384D01*
X0068000Y0066384D01*
X0067587Y0066798D01*
X0065185Y0066798D01*
X0063486Y0065099D01*
X0063486Y0062697D01*
X0065185Y0060998D01*
X0067587Y0060998D01*
X0069174Y0062584D01*
X0070961Y0062584D01*
X0071013Y0062527D01*
X0072668Y0062447D01*
X0077001Y0066382D01*
X0077057Y0066382D01*
X0077609Y0066934D01*
X0078186Y0067459D01*
X0078189Y0067514D01*
X0078228Y0067554D01*
X0078228Y0068334D01*
X0078266Y0069113D01*
X0078228Y0069155D01*
X0078228Y0074962D01*
X0077057Y0076134D01*
X0076774Y0076134D01*
X0074306Y0078602D01*
X0060857Y0078602D01*
X0054607Y0084852D01*
X0054607Y0088401D01*
X0054707Y0088501D01*
X0054707Y0090075D01*
X0051357Y0093425D01*
X0051357Y0097523D01*
X0052213Y0098379D01*
X0052980Y0097612D01*
X0053069Y0097612D01*
X0053069Y0096224D01*
X0053035Y0095481D01*
X0053069Y0095444D01*
X0053069Y0095394D01*
X0053594Y0094868D01*
X0056552Y0091629D01*
X0056202Y0091280D01*
X0056202Y0088878D01*
X0057901Y0087179D01*
X0060304Y0087179D01*
X0062002Y0088878D01*
X0062002Y0091280D01*
X0061031Y0092251D01*
X0061036Y0092354D01*
X0061002Y0092391D01*
X0061002Y0092441D01*
X0060476Y0092967D01*
X0056868Y0096918D01*
X0056868Y0099098D01*
X0057081Y0099311D01*
X0057081Y0101713D01*
X0055382Y0103412D01*
X0052980Y0103412D01*
X0051425Y0101857D01*
X0050658Y0102625D01*
X0048507Y0102625D01*
X0048507Y0105900D01*
X0054392Y0111785D01*
X0055382Y0111785D01*
X0057081Y0113484D01*
X0057081Y0115886D01*
X0055382Y0117585D01*
X0052980Y0117585D01*
X0051281Y0115886D01*
X0051281Y0114896D01*
X0045396Y0109011D01*
X0045396Y0109011D01*
X0044107Y0107722D01*
X0044107Y0102482D01*
X0043783Y0102807D01*
X0043783Y0113027D01*
X0043953Y0113582D01*
X0043783Y0113905D01*
X0043783Y0114270D01*
X0043735Y0114317D01*
X0053172Y0124050D01*
X0061143Y0116079D01*
X0062246Y0115622D01*
X0067953Y0115622D01*
X0068137Y0115177D01*
X0069516Y0113799D01*
X0071317Y0113053D01*
X0072949Y0113053D01*
X0082729Y0103273D01*
X0083477Y0085451D01*
X0083477Y0084917D01*
X0083502Y0084857D01*
X0083505Y0084791D01*
X0083730Y0084307D01*
X0083934Y0083814D01*
X0083980Y0083768D01*
X0084007Y0083709D01*
X0084400Y0083348D01*
X0092595Y0075153D01*
X0093439Y0074309D01*
X0094542Y0073852D01*
X0095264Y0073852D01*
X0095392Y0073778D01*
X0096733Y0073603D01*
X0102909Y0075262D01*
X0103136Y0075262D01*
X0103556Y0075436D01*
X0103995Y0075553D01*
X0104176Y0075692D01*
X0104386Y0075779D01*
X0104547Y0075940D01*
X0104976Y0076118D01*
X0105131Y0076272D01*
X0105131Y0072395D01*
X0104739Y0072657D01*
X0104052Y0072942D01*
X0103322Y0073087D01*
X0103039Y0073087D01*
X0103039Y0069398D01*
X0102861Y0069398D01*
X0102861Y0073087D01*
X0102577Y0073087D01*
X0101848Y0072942D01*
X0101160Y0072657D01*
X0100541Y0072243D01*
X0100015Y0071717D01*
X0099602Y0071098D01*
X0099317Y0070411D01*
X0099172Y0069681D01*
X0099172Y0069398D01*
X0102861Y0069398D01*
X0102861Y0069220D01*
X0103039Y0069220D01*
X0103039Y0065531D01*
X0103322Y0065531D01*
X0104052Y0065676D01*
X0104739Y0065961D01*
X0105131Y0066222D01*
X0105131Y0062345D01*
X0104976Y0062500D01*
X0103661Y0063044D01*
X0102238Y0063044D01*
X0100923Y0062500D01*
X0099916Y0061493D01*
X0099372Y0060178D01*
X0099372Y0058755D01*
X0099916Y0057440D01*
X0100923Y0056433D01*
X0102238Y0055888D01*
X0103661Y0055888D01*
X0104976Y0056433D01*
X0105131Y0056587D01*
X0105131Y0055374D01*
X0105156Y0055349D01*
X0105156Y0050941D01*
X0102776Y0048561D01*
X0102776Y0050444D01*
X0101077Y0052143D01*
X0098674Y0052143D01*
X0097542Y0051010D01*
X0087078Y0051010D01*
X0078590Y0059499D01*
X0063185Y0059499D01*
X0058067Y0064617D01*
X0053393Y0064617D01*
X0050569Y0067441D01*
X0050569Y0071302D01*
X0050626Y0072011D01*
X0050569Y0072078D01*
X0050569Y0072165D01*
X0050066Y0072668D01*
X0042514Y0081534D01*
X0042514Y0083209D01*
X0040815Y0084908D01*
X0038413Y0084908D01*
X0036714Y0083209D01*
X0036714Y0080807D01*
X0038413Y0079108D01*
X0039589Y0079108D01*
X0046769Y0070679D01*
X0046769Y0068091D01*
X0045845Y0069016D01*
X0045845Y0069409D01*
X0045270Y0069984D01*
X0045270Y0071398D01*
X0043571Y0073097D01*
X0041169Y0073097D01*
X0040726Y0072654D01*
X0040817Y0072874D01*
X0040817Y0074606D01*
X0040155Y0076206D01*
X0038930Y0077430D01*
X0037330Y0078093D01*
X0035599Y0078093D01*
X0033999Y0077430D01*
X0032774Y0076206D01*
X0032112Y0074606D01*
X0032112Y0072874D01*
X0032774Y0071275D01*
X0033999Y0070050D01*
X0035599Y0069388D01*
X0037330Y0069388D01*
X0038930Y0070050D01*
X0039470Y0070590D01*
X0039470Y0068996D01*
X0039700Y0068766D01*
X0038019Y0068766D01*
X0036320Y0067068D01*
X0036320Y0064665D01*
X0038019Y0062966D01*
X0040422Y0062966D01*
X0041422Y0063966D01*
X0042370Y0063966D01*
X0042689Y0063648D01*
X0041563Y0063648D01*
X0039864Y0061949D01*
X0039864Y0060036D01*
X0039864Y0060858D02*
X0039042Y0060858D01*
X0039971Y0062057D02*
X0037843Y0062057D01*
X0037730Y0063255D02*
X0036645Y0063255D01*
X0036532Y0064454D02*
X0035609Y0064454D01*
X0035632Y0065652D02*
X0036320Y0065652D01*
X0036320Y0066851D02*
X0035609Y0066851D01*
X0034606Y0068049D02*
X0037302Y0068049D01*
X0039470Y0069248D02*
X0033283Y0069248D01*
X0033603Y0070446D02*
X0031993Y0070446D01*
X0032621Y0071645D02*
X0030702Y0071645D01*
X0030097Y0072843D02*
X0032125Y0072843D01*
X0032112Y0074042D02*
X0030097Y0074042D01*
X0030097Y0075240D02*
X0032375Y0075240D01*
X0033007Y0076439D02*
X0030097Y0076439D01*
X0030097Y0077637D02*
X0034499Y0077637D01*
X0037487Y0080034D02*
X0030097Y0080034D01*
X0030097Y0078836D02*
X0039820Y0078836D01*
X0040841Y0077637D02*
X0038431Y0077637D01*
X0039922Y0076439D02*
X0041862Y0076439D01*
X0042883Y0075240D02*
X0040555Y0075240D01*
X0040817Y0074042D02*
X0043904Y0074042D01*
X0043825Y0072843D02*
X0044925Y0072843D01*
X0045023Y0071645D02*
X0045946Y0071645D01*
X0045270Y0070446D02*
X0046769Y0070446D01*
X0046769Y0069248D02*
X0045845Y0069248D01*
X0050569Y0069248D02*
X0074013Y0069248D01*
X0072815Y0068049D02*
X0050569Y0068049D01*
X0051159Y0066851D02*
X0071568Y0066851D01*
X0071937Y0064484D02*
X0076228Y0068382D01*
X0076228Y0074134D01*
X0078228Y0074042D02*
X0094084Y0074042D01*
X0092508Y0075240D02*
X0077950Y0075240D01*
X0076469Y0076439D02*
X0091309Y0076439D01*
X0090111Y0077637D02*
X0075271Y0077637D01*
X0086515Y0081233D02*
X0058226Y0081233D01*
X0057028Y0082431D02*
X0085317Y0082431D01*
X0084093Y0083630D02*
X0055829Y0083630D01*
X0054631Y0084828D02*
X0083503Y0084828D01*
X0083453Y0086027D02*
X0054607Y0086027D01*
X0054607Y0087225D02*
X0057855Y0087225D01*
X0056656Y0088424D02*
X0054630Y0088424D01*
X0054707Y0089622D02*
X0056202Y0089622D01*
X0056202Y0090821D02*
X0053961Y0090821D01*
X0052762Y0092020D02*
X0056196Y0092020D01*
X0055101Y0093218D02*
X0051564Y0093218D01*
X0051357Y0094417D02*
X0054007Y0094417D01*
X0053041Y0095615D02*
X0051357Y0095615D01*
X0051357Y0096814D02*
X0053069Y0096814D01*
X0052580Y0098012D02*
X0051845Y0098012D01*
X0056868Y0098012D02*
X0082950Y0098012D01*
X0083000Y0096814D02*
X0056964Y0096814D01*
X0058058Y0095615D02*
X0083050Y0095615D01*
X0083101Y0094417D02*
X0059153Y0094417D01*
X0060247Y0093218D02*
X0083151Y0093218D01*
X0083201Y0092020D02*
X0061263Y0092020D01*
X0062002Y0090821D02*
X0083252Y0090821D01*
X0083302Y0089622D02*
X0062002Y0089622D01*
X0061549Y0088424D02*
X0083352Y0088424D01*
X0083403Y0087225D02*
X0060350Y0087225D01*
X0049026Y0081233D02*
X0042770Y0081233D01*
X0042514Y0082431D02*
X0047828Y0082431D01*
X0046756Y0083630D02*
X0042093Y0083630D01*
X0040895Y0084828D02*
X0046756Y0084828D01*
X0046756Y0086027D02*
X0046055Y0086027D01*
X0042293Y0086027D02*
X0031359Y0086027D01*
X0030817Y0084828D02*
X0038333Y0084828D01*
X0037135Y0083630D02*
X0030975Y0083630D01*
X0030856Y0082431D02*
X0036714Y0082431D01*
X0036714Y0081233D02*
X0030360Y0081233D01*
X0026297Y0078836D02*
X0023898Y0078836D01*
X0023898Y0080034D02*
X0024015Y0080034D01*
X0023898Y0077637D02*
X0026297Y0077637D01*
X0026297Y0076439D02*
X0023898Y0076439D01*
X0023898Y0075240D02*
X0026297Y0075240D01*
X0026297Y0074042D02*
X0023898Y0074042D01*
X0023898Y0072843D02*
X0026297Y0072843D01*
X0026286Y0071645D02*
X0023898Y0071645D01*
X0023898Y0070446D02*
X0026408Y0070446D01*
X0027699Y0069248D02*
X0023898Y0069248D01*
X0023898Y0068049D02*
X0024741Y0068049D01*
X0026238Y0068049D02*
X0027006Y0068049D01*
X0027006Y0066851D02*
X0026238Y0066851D01*
X0026238Y0065652D02*
X0027006Y0065652D01*
X0027006Y0064454D02*
X0026238Y0064454D01*
X0026238Y0064282D02*
X0023898Y0064282D01*
X0023898Y0063514D01*
X0026238Y0063514D01*
X0026238Y0064282D01*
X0026238Y0063255D02*
X0027006Y0063255D01*
X0027006Y0062057D02*
X0026238Y0062057D01*
X0026238Y0060858D02*
X0027006Y0060858D01*
X0027006Y0059660D02*
X0026238Y0059660D01*
X0024933Y0059660D02*
X0023898Y0059660D01*
X0023898Y0058461D02*
X0036065Y0058461D01*
X0037263Y0057263D02*
X0023898Y0057263D01*
X0023898Y0056064D02*
X0037895Y0056064D01*
X0037895Y0054866D02*
X0024814Y0054866D01*
X0026012Y0053667D02*
X0038657Y0053667D01*
X0040570Y0052469D02*
X0027211Y0052469D01*
X0021898Y0055236D02*
X0021898Y0087482D01*
X0023866Y0089451D01*
X0023537Y0091808D02*
X0023537Y0153795D01*
X0023592Y0153624D01*
X0023949Y0152924D01*
X0024412Y0152287D01*
X0024968Y0151731D01*
X0025604Y0151269D01*
X0026304Y0150912D01*
X0027052Y0150669D01*
X0027690Y0150568D01*
X0027690Y0155010D01*
X0028754Y0155010D01*
X0028754Y0156074D01*
X0033196Y0156074D01*
X0033095Y0156712D01*
X0032852Y0157460D01*
X0032495Y0158160D01*
X0032033Y0158796D01*
X0031477Y0159352D01*
X0031157Y0159584D01*
X0052846Y0159584D01*
X0052527Y0159352D01*
X0051971Y0158796D01*
X0051508Y0158160D01*
X0051151Y0157460D01*
X0050908Y0156712D01*
X0050807Y0156074D01*
X0051417Y0156074D01*
X0051417Y0155010D01*
X0050807Y0155010D01*
X0050908Y0154372D01*
X0051151Y0153624D01*
X0051508Y0152924D01*
X0051971Y0152287D01*
X0052527Y0151731D01*
X0053163Y0151269D01*
X0053863Y0150912D01*
X0054611Y0150669D01*
X0055249Y0150568D01*
X0055249Y0151336D01*
X0056313Y0151336D01*
X0056313Y0151145D01*
X0055605Y0150437D01*
X0055605Y0146584D01*
X0055359Y0147066D01*
X0054979Y0147589D01*
X0054521Y0148047D01*
X0053998Y0148427D01*
X0053422Y0148721D01*
X0052806Y0148921D01*
X0052168Y0149022D01*
X0052081Y0149022D01*
X0052081Y0145149D01*
X0051607Y0145149D01*
X0051607Y0144675D01*
X0047734Y0144675D01*
X0047734Y0144589D01*
X0047835Y0143950D01*
X0048035Y0143334D01*
X0048329Y0142758D01*
X0048709Y0142235D01*
X0049167Y0141777D01*
X0049690Y0141397D01*
X0050266Y0141103D01*
X0050882Y0140903D01*
X0051521Y0140802D01*
X0051607Y0140802D01*
X0051607Y0144675D01*
X0052081Y0144675D01*
X0052081Y0140802D01*
X0052168Y0140802D01*
X0052806Y0140903D01*
X0053422Y0141103D01*
X0053998Y0141397D01*
X0054521Y0141777D01*
X0054979Y0142235D01*
X0055359Y0142758D01*
X0055605Y0143240D01*
X0055605Y0139434D01*
X0056425Y0138614D01*
X0062309Y0138614D01*
X0063129Y0139434D01*
X0063129Y0150437D01*
X0062309Y0151257D01*
X0058375Y0151257D01*
X0058399Y0151269D01*
X0059036Y0151731D01*
X0059592Y0152287D01*
X0060054Y0152924D01*
X0060411Y0153624D01*
X0060654Y0154372D01*
X0060755Y0155010D01*
X0060117Y0155010D01*
X0060117Y0156074D01*
X0060755Y0156074D01*
X0060654Y0156712D01*
X0060411Y0157460D01*
X0060054Y0158160D01*
X0059592Y0158796D01*
X0059036Y0159352D01*
X0058716Y0159584D01*
X0080612Y0159584D01*
X0080103Y0159373D01*
X0078879Y0158150D01*
X0078217Y0156551D01*
X0078217Y0154820D01*
X0078879Y0153222D01*
X0080103Y0151998D01*
X0081702Y0151336D01*
X0083432Y0151336D01*
X0085031Y0151998D01*
X0085458Y0152425D01*
X0085458Y0147176D01*
X0086278Y0146356D01*
X0093737Y0146356D01*
X0094557Y0147176D01*
X0094557Y0159584D01*
X0112230Y0159584D01*
X0112230Y0147176D01*
X0113050Y0146356D01*
X0116233Y0146356D01*
X0116233Y0139377D01*
X0115592Y0139377D01*
X0115592Y0144077D01*
X0115591Y0144077D01*
X0114798Y0143951D01*
X0114034Y0143703D01*
X0113319Y0143338D01*
X0112670Y0142867D01*
X0112102Y0142299D01*
X0111630Y0141650D01*
X0111266Y0140934D01*
X0111018Y0140171D01*
X0110899Y0139423D01*
X0110899Y0143242D01*
X0110790Y0143649D01*
X0110580Y0144014D01*
X0110282Y0144312D01*
X0109917Y0144523D01*
X0109510Y0144632D01*
X0107715Y0144632D01*
X0107715Y0134361D01*
X0106946Y0134361D01*
X0106946Y0133592D01*
X0103762Y0133592D01*
X0103762Y0124711D01*
X0103871Y0124304D01*
X0104082Y0123939D01*
X0104380Y0123641D01*
X0104745Y0123430D01*
X0105152Y0123321D01*
X0106946Y0123321D01*
X0106946Y0133592D01*
X0107715Y0133592D01*
X0107715Y0123357D01*
X0105186Y0120828D01*
X0096627Y0120828D01*
X0096327Y0121128D01*
X0093925Y0121128D01*
X0092226Y0119430D01*
X0092226Y0118222D01*
X0080765Y0129682D01*
X0079921Y0130526D01*
X0078819Y0130983D01*
X0076191Y0130983D01*
X0075067Y0132107D01*
X0073266Y0132853D01*
X0071767Y0132853D01*
X0071767Y0138614D01*
X0072109Y0138614D01*
X0072929Y0139434D01*
X0072929Y0141525D01*
X0075205Y0141525D01*
X0075205Y0139434D01*
X0076025Y0138614D01*
X0081046Y0138614D01*
X0088227Y0131433D01*
X0089329Y0130977D01*
X0096088Y0130977D01*
X0096088Y0124342D01*
X0096908Y0123521D01*
X0102005Y0123521D01*
X0102825Y0124342D01*
X0102825Y0143612D01*
X0102005Y0144432D01*
X0096908Y0144432D01*
X0096088Y0143612D01*
X0096088Y0136977D01*
X0091169Y0136977D01*
X0082729Y0145416D01*
X0082729Y0150437D01*
X0081909Y0151257D01*
X0076025Y0151257D01*
X0075205Y0150437D01*
X0075205Y0146725D01*
X0072929Y0146725D01*
X0072929Y0150437D01*
X0072109Y0151257D01*
X0066225Y0151257D01*
X0065405Y0150437D01*
X0065405Y0139434D01*
X0066225Y0138614D01*
X0066567Y0138614D01*
X0066567Y0130560D01*
X0066963Y0129605D01*
X0067464Y0129103D01*
X0067391Y0128928D01*
X0067391Y0128612D01*
X0067263Y0128134D01*
X0067391Y0127152D01*
X0067391Y0126978D01*
X0068137Y0125177D01*
X0069516Y0123799D01*
X0071317Y0123053D01*
X0073266Y0123053D01*
X0075067Y0123799D01*
X0076251Y0124983D01*
X0076979Y0124983D01*
X0087367Y0114596D01*
X0087465Y0114359D01*
X0088309Y0113515D01*
X0089274Y0113115D01*
X0091552Y0110838D01*
X0092283Y0110106D01*
X0093239Y0109710D01*
X0094849Y0109710D01*
X0094968Y0109591D01*
X0094968Y0109591D01*
X0098431Y0106128D01*
X0098431Y0104262D01*
X0098281Y0104262D01*
X0096582Y0102564D01*
X0096582Y0100161D01*
X0097465Y0099278D01*
X0097650Y0097261D01*
X0097650Y0096451D01*
X0097733Y0096369D01*
X0097743Y0096253D01*
X0098366Y0095735D01*
X0100045Y0094057D01*
X0105131Y0088971D01*
X0105131Y0082030D01*
X0104976Y0082185D01*
X0103661Y0082729D01*
X0102238Y0082729D01*
X0100923Y0082185D01*
X0100355Y0081617D01*
X0095832Y0080402D01*
X0089425Y0086808D01*
X0088677Y0104630D01*
X0088677Y0105164D01*
X0088652Y0105224D01*
X0088649Y0105289D01*
X0088425Y0105773D01*
X0088220Y0106266D01*
X0088174Y0106313D01*
X0088147Y0106372D01*
X0087754Y0106733D01*
X0077191Y0117296D01*
X0077191Y0118928D01*
X0076445Y0120729D01*
X0075067Y0122107D01*
X0073266Y0122853D01*
X0071317Y0122853D01*
X0069516Y0122107D01*
X0069031Y0121622D01*
X0064085Y0121622D01*
X0054719Y0130988D01*
X0054719Y0133209D01*
X0053020Y0134908D01*
X0050618Y0134908D01*
X0048919Y0133209D01*
X0048919Y0130807D01*
X0049013Y0130712D01*
X0048819Y0130243D01*
X0048819Y0128180D01*
X0036738Y0115719D01*
X0036298Y0114609D01*
X0036317Y0113416D01*
X0036790Y0112321D01*
X0037647Y0111490D01*
X0038757Y0111050D01*
X0039383Y0111060D01*
X0039383Y0102807D01*
X0038683Y0102107D01*
X0038683Y0099704D01*
X0039583Y0098804D01*
X0039583Y0093073D01*
X0039473Y0092963D01*
X0024692Y0092963D01*
X0023537Y0091808D01*
X0023537Y0092020D02*
X0023748Y0092020D01*
X0023537Y0093218D02*
X0039583Y0093218D01*
X0039583Y0094417D02*
X0023537Y0094417D01*
X0023537Y0095615D02*
X0033742Y0095615D01*
X0034476Y0094881D02*
X0036878Y0094881D01*
X0038577Y0096580D01*
X0038577Y0098982D01*
X0036878Y0100681D01*
X0036600Y0100681D01*
X0028916Y0108366D01*
X0028916Y0112878D01*
X0029916Y0113878D01*
X0029916Y0116280D01*
X0028217Y0117979D01*
X0025815Y0117979D01*
X0024116Y0116280D01*
X0024116Y0113878D01*
X0025116Y0112878D01*
X0025116Y0106792D01*
X0032851Y0099056D01*
X0032777Y0098982D01*
X0032777Y0096580D01*
X0034476Y0094881D01*
X0032777Y0096814D02*
X0023537Y0096814D01*
X0023537Y0098012D02*
X0032777Y0098012D01*
X0032697Y0099211D02*
X0023537Y0099211D01*
X0023537Y0100409D02*
X0031499Y0100409D01*
X0030300Y0101608D02*
X0023537Y0101608D01*
X0023537Y0102806D02*
X0029102Y0102806D01*
X0027903Y0104005D02*
X0023537Y0104005D01*
X0023537Y0105203D02*
X0026705Y0105203D01*
X0025506Y0106402D02*
X0023537Y0106402D01*
X0023537Y0107600D02*
X0025116Y0107600D01*
X0025116Y0108799D02*
X0023537Y0108799D01*
X0023537Y0109997D02*
X0025116Y0109997D01*
X0025116Y0111196D02*
X0023537Y0111196D01*
X0023537Y0112394D02*
X0025116Y0112394D01*
X0024401Y0113593D02*
X0023537Y0113593D01*
X0023537Y0114791D02*
X0024116Y0114791D01*
X0024116Y0115990D02*
X0023537Y0115990D01*
X0023537Y0117188D02*
X0025024Y0117188D01*
X0023537Y0118387D02*
X0039324Y0118387D01*
X0040486Y0119585D02*
X0023537Y0119585D01*
X0023537Y0120784D02*
X0041648Y0120784D01*
X0042810Y0121982D02*
X0023537Y0121982D01*
X0023537Y0123181D02*
X0043972Y0123181D01*
X0045134Y0124379D02*
X0023537Y0124379D01*
X0023537Y0125578D02*
X0046296Y0125578D01*
X0047458Y0126776D02*
X0023537Y0126776D01*
X0023537Y0127975D02*
X0048620Y0127975D01*
X0048819Y0129173D02*
X0023537Y0129173D01*
X0023537Y0130372D02*
X0048872Y0130372D01*
X0048919Y0131570D02*
X0023537Y0131570D01*
X0023537Y0132769D02*
X0048919Y0132769D01*
X0049677Y0133967D02*
X0023537Y0133967D01*
X0023537Y0135166D02*
X0066567Y0135166D01*
X0066567Y0136364D02*
X0023537Y0136364D01*
X0023537Y0137563D02*
X0066567Y0137563D01*
X0066078Y0138761D02*
X0062456Y0138761D01*
X0063129Y0139960D02*
X0065405Y0139960D01*
X0065405Y0141158D02*
X0063129Y0141158D01*
X0063129Y0142357D02*
X0065405Y0142357D01*
X0065405Y0143555D02*
X0063129Y0143555D01*
X0063129Y0144754D02*
X0065405Y0144754D01*
X0065405Y0145953D02*
X0063129Y0145953D01*
X0063129Y0147151D02*
X0065405Y0147151D01*
X0065405Y0148350D02*
X0063129Y0148350D01*
X0063129Y0149548D02*
X0065405Y0149548D01*
X0065715Y0150747D02*
X0062819Y0150747D01*
X0059249Y0151945D02*
X0080230Y0151945D01*
X0078957Y0153144D02*
X0060166Y0153144D01*
X0060644Y0154342D02*
X0078415Y0154342D01*
X0078217Y0155541D02*
X0060117Y0155541D01*
X0060645Y0156739D02*
X0078295Y0156739D01*
X0078791Y0157938D02*
X0060167Y0157938D01*
X0059252Y0159136D02*
X0079866Y0159136D01*
X0094557Y0159136D02*
X0112230Y0159136D01*
X0112230Y0157938D02*
X0094557Y0157938D01*
X0094557Y0156739D02*
X0112230Y0156739D01*
X0112230Y0155541D02*
X0094557Y0155541D01*
X0094557Y0154342D02*
X0112230Y0154342D01*
X0112230Y0153144D02*
X0094557Y0153144D01*
X0094557Y0151945D02*
X0112230Y0151945D01*
X0112230Y0150747D02*
X0094557Y0150747D01*
X0094557Y0149548D02*
X0112230Y0149548D01*
X0112230Y0148350D02*
X0094557Y0148350D01*
X0094532Y0147151D02*
X0112255Y0147151D01*
X0116233Y0145953D02*
X0082729Y0145953D01*
X0082729Y0147151D02*
X0085483Y0147151D01*
X0085458Y0148350D02*
X0082729Y0148350D01*
X0082729Y0149548D02*
X0085458Y0149548D01*
X0085458Y0150747D02*
X0082419Y0150747D01*
X0084904Y0151945D02*
X0085458Y0151945D01*
X0075515Y0150747D02*
X0072619Y0150747D01*
X0072929Y0149548D02*
X0075205Y0149548D01*
X0075205Y0148350D02*
X0072929Y0148350D01*
X0072929Y0147151D02*
X0075205Y0147151D01*
X0083391Y0144754D02*
X0116233Y0144754D01*
X0116233Y0143555D02*
X0115592Y0143555D01*
X0115592Y0142357D02*
X0116233Y0142357D01*
X0116233Y0141158D02*
X0115592Y0141158D01*
X0115592Y0139960D02*
X0116233Y0139960D01*
X0116233Y0138576D02*
X0116233Y0133877D01*
X0115017Y0133877D01*
X0113216Y0133131D01*
X0111838Y0131752D01*
X0111092Y0129951D01*
X0111092Y0128002D01*
X0111249Y0127624D01*
X0111055Y0127157D01*
X0111055Y0126698D01*
X0110899Y0126542D01*
X0110899Y0133592D01*
X0107715Y0133592D01*
X0107715Y0134361D01*
X0110899Y0134361D01*
X0110899Y0138531D01*
X0111018Y0137782D01*
X0111266Y0137019D01*
X0111630Y0136304D01*
X0112102Y0135654D01*
X0112670Y0135086D01*
X0113319Y0134615D01*
X0114034Y0134250D01*
X0114798Y0134002D01*
X0115591Y0133877D01*
X0115592Y0133877D01*
X0115592Y0138576D01*
X0116233Y0138576D01*
X0116233Y0137563D02*
X0115592Y0137563D01*
X0115592Y0136364D02*
X0116233Y0136364D01*
X0116233Y0135166D02*
X0115592Y0135166D01*
X0115592Y0133967D02*
X0116233Y0133967D01*
X0115017Y0133967D02*
X0107715Y0133967D01*
X0106946Y0133967D02*
X0102825Y0133967D01*
X0103762Y0134361D02*
X0106946Y0134361D01*
X0106946Y0144632D01*
X0105152Y0144632D01*
X0104745Y0144523D01*
X0104380Y0144312D01*
X0104082Y0144014D01*
X0103871Y0143649D01*
X0103762Y0143242D01*
X0103762Y0134361D01*
X0103762Y0135166D02*
X0102825Y0135166D01*
X0102825Y0136364D02*
X0103762Y0136364D01*
X0103762Y0137563D02*
X0102825Y0137563D01*
X0102825Y0138761D02*
X0103762Y0138761D01*
X0103762Y0139960D02*
X0102825Y0139960D01*
X0102825Y0141158D02*
X0103762Y0141158D01*
X0103762Y0142357D02*
X0102825Y0142357D01*
X0102825Y0143555D02*
X0103846Y0143555D01*
X0106946Y0143555D02*
X0107715Y0143555D01*
X0107715Y0142357D02*
X0106946Y0142357D01*
X0106946Y0141158D02*
X0107715Y0141158D01*
X0107715Y0139960D02*
X0106946Y0139960D01*
X0106946Y0138761D02*
X0107715Y0138761D01*
X0107715Y0137563D02*
X0106946Y0137563D01*
X0106946Y0136364D02*
X0107715Y0136364D01*
X0107715Y0135166D02*
X0106946Y0135166D01*
X0106946Y0132769D02*
X0107715Y0132769D01*
X0107715Y0131570D02*
X0106946Y0131570D01*
X0106946Y0130372D02*
X0107715Y0130372D01*
X0107715Y0129173D02*
X0106946Y0129173D01*
X0106946Y0127975D02*
X0107715Y0127975D01*
X0107715Y0126776D02*
X0106946Y0126776D01*
X0106946Y0125578D02*
X0107715Y0125578D01*
X0107715Y0124379D02*
X0106946Y0124379D01*
X0107538Y0123181D02*
X0087267Y0123181D01*
X0088465Y0121982D02*
X0106340Y0121982D01*
X0103851Y0124379D02*
X0102825Y0124379D01*
X0102825Y0125578D02*
X0103762Y0125578D01*
X0103762Y0126776D02*
X0102825Y0126776D01*
X0102825Y0127975D02*
X0103762Y0127975D01*
X0103762Y0129173D02*
X0102825Y0129173D01*
X0102825Y0130372D02*
X0103762Y0130372D01*
X0103762Y0131570D02*
X0102825Y0131570D01*
X0102825Y0132769D02*
X0103762Y0132769D01*
X0110899Y0132769D02*
X0112855Y0132769D01*
X0111763Y0131570D02*
X0110899Y0131570D01*
X0110899Y0130372D02*
X0111266Y0130372D01*
X0111092Y0129173D02*
X0110899Y0129173D01*
X0110899Y0127975D02*
X0111103Y0127975D01*
X0111055Y0126776D02*
X0110899Y0126776D01*
X0096088Y0126776D02*
X0083671Y0126776D01*
X0084870Y0125578D02*
X0096088Y0125578D01*
X0096088Y0124379D02*
X0086068Y0124379D01*
X0078781Y0123181D02*
X0073575Y0123181D01*
X0075192Y0121982D02*
X0079980Y0121982D01*
X0081178Y0120784D02*
X0076390Y0120784D01*
X0076919Y0119585D02*
X0082377Y0119585D01*
X0083575Y0118387D02*
X0077191Y0118387D01*
X0077299Y0117188D02*
X0084774Y0117188D01*
X0085973Y0115990D02*
X0078497Y0115990D01*
X0079696Y0114791D02*
X0087171Y0114791D01*
X0088231Y0113593D02*
X0080894Y0113593D01*
X0082093Y0112394D02*
X0089995Y0112394D01*
X0091194Y0111196D02*
X0083291Y0111196D01*
X0084490Y0109997D02*
X0092546Y0109997D01*
X0095761Y0108799D02*
X0085688Y0108799D01*
X0086887Y0107600D02*
X0096959Y0107600D01*
X0098158Y0106402D02*
X0088114Y0106402D01*
X0088661Y0105203D02*
X0098431Y0105203D01*
X0098023Y0104005D02*
X0088703Y0104005D01*
X0088754Y0102806D02*
X0096824Y0102806D01*
X0096582Y0101608D02*
X0088804Y0101608D01*
X0088854Y0100409D02*
X0096582Y0100409D01*
X0097471Y0099211D02*
X0088905Y0099211D01*
X0088955Y0098012D02*
X0097581Y0098012D01*
X0097650Y0096814D02*
X0089005Y0096814D01*
X0089056Y0095615D02*
X0098486Y0095615D01*
X0099685Y0094417D02*
X0089106Y0094417D01*
X0089156Y0093218D02*
X0100883Y0093218D01*
X0100045Y0094057D02*
X0100045Y0094057D01*
X0102082Y0092020D02*
X0089207Y0092020D01*
X0089257Y0090821D02*
X0103280Y0090821D01*
X0104479Y0089622D02*
X0089307Y0089622D01*
X0089358Y0088424D02*
X0105131Y0088424D01*
X0105131Y0087225D02*
X0089408Y0087225D01*
X0090206Y0086027D02*
X0105131Y0086027D01*
X0105131Y0084828D02*
X0091405Y0084828D01*
X0092603Y0083630D02*
X0105131Y0083630D01*
X0105131Y0082431D02*
X0104380Y0082431D01*
X0101519Y0082431D02*
X0093802Y0082431D01*
X0095000Y0081233D02*
X0098926Y0081233D01*
X0088912Y0078836D02*
X0060623Y0078836D01*
X0059425Y0080034D02*
X0087714Y0080034D01*
X0098368Y0074042D02*
X0105131Y0074042D01*
X0105131Y0075240D02*
X0102830Y0075240D01*
X0102861Y0072843D02*
X0103039Y0072843D01*
X0103039Y0071645D02*
X0102861Y0071645D01*
X0102861Y0070446D02*
X0103039Y0070446D01*
X0102861Y0069248D02*
X0078228Y0069248D01*
X0078228Y0070446D02*
X0099332Y0070446D01*
X0099172Y0069220D02*
X0099172Y0068937D01*
X0099317Y0068207D01*
X0099602Y0067519D01*
X0100015Y0066901D01*
X0100541Y0066374D01*
X0101160Y0065961D01*
X0101848Y0065676D01*
X0102577Y0065531D01*
X0102861Y0065531D01*
X0102861Y0069220D01*
X0099172Y0069220D01*
X0099382Y0068049D02*
X0078228Y0068049D01*
X0077525Y0066851D02*
X0100065Y0066851D01*
X0101967Y0065652D02*
X0076198Y0065652D01*
X0074878Y0064454D02*
X0105131Y0064454D01*
X0105131Y0065652D02*
X0103932Y0065652D01*
X0103039Y0065652D02*
X0102861Y0065652D01*
X0102861Y0066851D02*
X0103039Y0066851D01*
X0103039Y0068049D02*
X0102861Y0068049D01*
X0099967Y0071645D02*
X0078228Y0071645D01*
X0078228Y0072843D02*
X0101610Y0072843D01*
X0104289Y0072843D02*
X0105131Y0072843D01*
X0105131Y0063255D02*
X0073558Y0063255D01*
X0068646Y0062057D02*
X0100480Y0062057D01*
X0099653Y0060858D02*
X0061826Y0060858D01*
X0063024Y0059660D02*
X0099372Y0059660D01*
X0099493Y0058461D02*
X0079628Y0058461D01*
X0080826Y0057263D02*
X0100093Y0057263D01*
X0101813Y0056064D02*
X0082025Y0056064D01*
X0083223Y0054866D02*
X0105156Y0054866D01*
X0105131Y0056064D02*
X0104086Y0056064D01*
X0105156Y0053667D02*
X0084422Y0053667D01*
X0085620Y0052469D02*
X0105156Y0052469D01*
X0105156Y0051270D02*
X0101949Y0051270D01*
X0102776Y0050072D02*
X0104286Y0050072D01*
X0103088Y0048873D02*
X0102776Y0048873D01*
X0097802Y0051270D02*
X0086819Y0051270D01*
X0075956Y0047675D02*
X0075130Y0047675D01*
X0075956Y0046476D02*
X0061593Y0046476D01*
X0061593Y0045278D02*
X0075956Y0045278D01*
X0075956Y0044079D02*
X0061593Y0044079D01*
X0061593Y0042881D02*
X0075956Y0042881D01*
X0076544Y0041682D02*
X0060929Y0041682D01*
X0060624Y0040484D02*
X0077743Y0040484D01*
X0078317Y0039285D02*
X0059578Y0039285D01*
X0056552Y0036888D02*
X0075920Y0036888D01*
X0074722Y0035689D02*
X0057750Y0035689D01*
X0057868Y0034491D02*
X0073523Y0034491D01*
X0076217Y0032094D02*
X0109827Y0032094D01*
X0110256Y0031665D02*
X0110256Y0031523D01*
X0111308Y0030472D01*
X0111092Y0029951D01*
X0111092Y0028002D01*
X0111838Y0026201D01*
X0112289Y0025750D01*
X0082900Y0025497D01*
X0082900Y0028014D01*
X0080030Y0030884D01*
X0075970Y0030884D01*
X0073100Y0028014D01*
X0073100Y0025412D01*
X0072900Y0025410D01*
X0072900Y0028014D01*
X0071188Y0029726D01*
X0073850Y0029726D01*
X0081175Y0037051D01*
X0083115Y0035111D01*
X0084169Y0034057D01*
X0107864Y0034057D01*
X0110256Y0031665D01*
X0110884Y0030895D02*
X0075019Y0030895D01*
X0074783Y0029697D02*
X0071217Y0029697D01*
X0072416Y0028498D02*
X0073584Y0028498D01*
X0073100Y0027300D02*
X0072900Y0027300D01*
X0072900Y0026101D02*
X0073100Y0026101D01*
X0081217Y0029697D02*
X0111092Y0029697D01*
X0111092Y0028498D02*
X0082416Y0028498D01*
X0082900Y0027300D02*
X0111383Y0027300D01*
X0111938Y0026101D02*
X0082900Y0026101D01*
X0077416Y0033292D02*
X0108628Y0033292D01*
X0083735Y0034491D02*
X0078614Y0034491D01*
X0079813Y0035689D02*
X0082537Y0035689D01*
X0081338Y0036888D02*
X0081011Y0036888D01*
X0077119Y0038086D02*
X0049745Y0038086D01*
X0051001Y0036888D02*
X0053385Y0036888D01*
X0061593Y0047675D02*
X0071028Y0047675D01*
X0064126Y0062057D02*
X0060627Y0062057D01*
X0059429Y0063255D02*
X0063486Y0063255D01*
X0063486Y0064454D02*
X0058230Y0064454D01*
X0064039Y0065652D02*
X0052358Y0065652D01*
X0050569Y0070446D02*
X0059813Y0070446D01*
X0058614Y0071645D02*
X0050597Y0071645D01*
X0049917Y0072843D02*
X0057416Y0072843D01*
X0056217Y0074042D02*
X0048896Y0074042D01*
X0047875Y0075240D02*
X0055019Y0075240D01*
X0053820Y0076439D02*
X0046854Y0076439D01*
X0045833Y0077637D02*
X0052622Y0077637D01*
X0051423Y0078836D02*
X0044812Y0078836D01*
X0043791Y0080034D02*
X0050225Y0080034D01*
X0040915Y0072843D02*
X0040804Y0072843D01*
X0039470Y0070446D02*
X0039326Y0070446D01*
X0031571Y0065652D02*
X0030838Y0065652D01*
X0031143Y0064454D02*
X0031809Y0064454D01*
X0031809Y0063255D02*
X0031130Y0063255D01*
X0030794Y0062057D02*
X0032469Y0062057D01*
X0033668Y0060858D02*
X0030021Y0060858D01*
X0028312Y0059660D02*
X0034866Y0059660D01*
X0040711Y0063255D02*
X0041170Y0063255D01*
X0030280Y0066851D02*
X0030104Y0066851D01*
X0028989Y0068049D02*
X0028503Y0068049D01*
X0041189Y0091851D02*
X0041583Y0092244D01*
X0041583Y0100906D01*
X0043783Y0102806D02*
X0044107Y0102806D01*
X0044107Y0104005D02*
X0043783Y0104005D01*
X0043783Y0105203D02*
X0044107Y0105203D01*
X0044107Y0106402D02*
X0043783Y0106402D01*
X0043783Y0107600D02*
X0044107Y0107600D01*
X0043783Y0108799D02*
X0045183Y0108799D01*
X0046382Y0109997D02*
X0043783Y0109997D01*
X0043783Y0111196D02*
X0047580Y0111196D01*
X0048779Y0112394D02*
X0043783Y0112394D01*
X0043948Y0113593D02*
X0049977Y0113593D01*
X0051176Y0114791D02*
X0044195Y0114791D01*
X0045357Y0115990D02*
X0051384Y0115990D01*
X0052583Y0117188D02*
X0046519Y0117188D01*
X0047681Y0118387D02*
X0058835Y0118387D01*
X0057637Y0119585D02*
X0048843Y0119585D01*
X0050005Y0120784D02*
X0056438Y0120784D01*
X0055240Y0121982D02*
X0051167Y0121982D01*
X0052329Y0123181D02*
X0054041Y0123181D01*
X0060130Y0125578D02*
X0067971Y0125578D01*
X0067475Y0126776D02*
X0058931Y0126776D01*
X0057733Y0127975D02*
X0067284Y0127975D01*
X0067394Y0129173D02*
X0056534Y0129173D01*
X0055335Y0130372D02*
X0066645Y0130372D01*
X0066567Y0131570D02*
X0054719Y0131570D01*
X0054719Y0132769D02*
X0066567Y0132769D01*
X0066567Y0133967D02*
X0053961Y0133967D01*
X0056278Y0138761D02*
X0023537Y0138761D01*
X0023537Y0139960D02*
X0055605Y0139960D01*
X0055605Y0141158D02*
X0053530Y0141158D01*
X0052081Y0141158D02*
X0051607Y0141158D01*
X0051607Y0142357D02*
X0052081Y0142357D01*
X0052081Y0143555D02*
X0051607Y0143555D01*
X0051607Y0144754D02*
X0032396Y0144754D01*
X0032396Y0144675D02*
X0032396Y0145149D01*
X0031922Y0145149D01*
X0031922Y0144675D01*
X0028049Y0144675D01*
X0028049Y0144589D01*
X0028150Y0143950D01*
X0028350Y0143334D01*
X0028644Y0142758D01*
X0029024Y0142235D01*
X0029482Y0141777D01*
X0030005Y0141397D01*
X0030581Y0141103D01*
X0031197Y0140903D01*
X0031836Y0140802D01*
X0031922Y0140802D01*
X0031922Y0144675D01*
X0032396Y0144675D01*
X0036269Y0144675D01*
X0036269Y0144589D01*
X0036168Y0143950D01*
X0035968Y0143334D01*
X0035674Y0142758D01*
X0035294Y0142235D01*
X0034836Y0141777D01*
X0034313Y0141397D01*
X0033737Y0141103D01*
X0033121Y0140903D01*
X0032483Y0140802D01*
X0032396Y0140802D01*
X0032396Y0144675D01*
X0032396Y0145149D02*
X0036269Y0145149D01*
X0036269Y0145235D01*
X0036168Y0145874D01*
X0035968Y0146490D01*
X0035674Y0147066D01*
X0035294Y0147589D01*
X0034836Y0148047D01*
X0034313Y0148427D01*
X0033737Y0148721D01*
X0033121Y0148921D01*
X0032483Y0149022D01*
X0032396Y0149022D01*
X0032396Y0145149D01*
X0031922Y0145149D02*
X0031922Y0149022D01*
X0031836Y0149022D01*
X0031197Y0148921D01*
X0030581Y0148721D01*
X0030005Y0148427D01*
X0029482Y0148047D01*
X0029024Y0147589D01*
X0028644Y0147066D01*
X0028350Y0146490D01*
X0028150Y0145874D01*
X0028049Y0145235D01*
X0028049Y0145149D01*
X0031922Y0145149D01*
X0031922Y0144754D02*
X0023537Y0144754D01*
X0023537Y0145953D02*
X0028176Y0145953D01*
X0028706Y0147151D02*
X0023537Y0147151D01*
X0023537Y0148350D02*
X0029898Y0148350D01*
X0031922Y0148350D02*
X0032396Y0148350D01*
X0032396Y0147151D02*
X0031922Y0147151D01*
X0031922Y0145953D02*
X0032396Y0145953D01*
X0032396Y0143555D02*
X0031922Y0143555D01*
X0031922Y0142357D02*
X0032396Y0142357D01*
X0032396Y0141158D02*
X0031922Y0141158D01*
X0030473Y0141158D02*
X0023537Y0141158D01*
X0023537Y0142357D02*
X0028935Y0142357D01*
X0028278Y0143555D02*
X0023537Y0143555D01*
X0033845Y0141158D02*
X0050158Y0141158D01*
X0048620Y0142357D02*
X0035383Y0142357D01*
X0036040Y0143555D02*
X0047963Y0143555D01*
X0047734Y0145149D02*
X0051607Y0145149D01*
X0051607Y0149022D01*
X0051521Y0149022D01*
X0050882Y0148921D01*
X0050266Y0148721D01*
X0049690Y0148427D01*
X0049167Y0148047D01*
X0048709Y0147589D01*
X0048329Y0147066D01*
X0048035Y0146490D01*
X0047835Y0145874D01*
X0047734Y0145235D01*
X0047734Y0145149D01*
X0047861Y0145953D02*
X0036142Y0145953D01*
X0035612Y0147151D02*
X0048391Y0147151D01*
X0049583Y0148350D02*
X0034420Y0148350D01*
X0030840Y0151269D02*
X0030140Y0150912D01*
X0029392Y0150669D01*
X0028754Y0150568D01*
X0028754Y0155010D01*
X0033196Y0155010D01*
X0033095Y0154372D01*
X0032852Y0153624D01*
X0032495Y0152924D01*
X0032033Y0152287D01*
X0031477Y0151731D01*
X0030840Y0151269D01*
X0031690Y0151945D02*
X0052313Y0151945D01*
X0051396Y0153144D02*
X0032607Y0153144D01*
X0033085Y0154342D02*
X0050918Y0154342D01*
X0051417Y0155541D02*
X0028754Y0155541D01*
X0028754Y0154342D02*
X0027690Y0154342D01*
X0027690Y0153144D02*
X0028754Y0153144D01*
X0028754Y0151945D02*
X0027690Y0151945D01*
X0027690Y0150747D02*
X0028754Y0150747D01*
X0029630Y0150747D02*
X0054373Y0150747D01*
X0055249Y0150747D02*
X0055915Y0150747D01*
X0055605Y0149548D02*
X0023537Y0149548D01*
X0023537Y0150747D02*
X0026814Y0150747D01*
X0024754Y0151945D02*
X0023537Y0151945D01*
X0023537Y0153144D02*
X0023837Y0153144D01*
X0031693Y0159136D02*
X0052310Y0159136D01*
X0051395Y0157938D02*
X0032608Y0157938D01*
X0033086Y0156739D02*
X0050917Y0156739D01*
X0051607Y0148350D02*
X0052081Y0148350D01*
X0052081Y0147151D02*
X0051607Y0147151D01*
X0051607Y0145953D02*
X0052081Y0145953D01*
X0055297Y0147151D02*
X0055605Y0147151D01*
X0055605Y0148350D02*
X0054105Y0148350D01*
X0055068Y0142357D02*
X0055605Y0142357D01*
X0071767Y0137563D02*
X0082097Y0137563D01*
X0083295Y0136364D02*
X0071767Y0136364D01*
X0071767Y0135166D02*
X0084494Y0135166D01*
X0085692Y0133967D02*
X0071767Y0133967D01*
X0073469Y0132769D02*
X0086891Y0132769D01*
X0088089Y0131570D02*
X0075604Y0131570D01*
X0078197Y0133583D02*
X0078591Y0133583D01*
X0077409Y0134764D01*
X0075878Y0138761D02*
X0072256Y0138761D01*
X0072929Y0139960D02*
X0075205Y0139960D01*
X0075205Y0141158D02*
X0072929Y0141158D01*
X0084590Y0143555D02*
X0096088Y0143555D01*
X0096088Y0142357D02*
X0085788Y0142357D01*
X0086987Y0141158D02*
X0096088Y0141158D01*
X0096088Y0139960D02*
X0088185Y0139960D01*
X0089384Y0138761D02*
X0096088Y0138761D01*
X0096088Y0137563D02*
X0090582Y0137563D01*
X0096088Y0130372D02*
X0080076Y0130372D01*
X0081274Y0129173D02*
X0096088Y0129173D01*
X0096088Y0127975D02*
X0082473Y0127975D01*
X0077583Y0124379D02*
X0075647Y0124379D01*
X0071008Y0123181D02*
X0062527Y0123181D01*
X0063725Y0121982D02*
X0069391Y0121982D01*
X0068935Y0124379D02*
X0061328Y0124379D01*
X0060034Y0117188D02*
X0055779Y0117188D01*
X0056978Y0115990D02*
X0061358Y0115990D01*
X0057081Y0114791D02*
X0068523Y0114791D01*
X0070013Y0113593D02*
X0057081Y0113593D01*
X0055991Y0112394D02*
X0073607Y0112394D01*
X0074806Y0111196D02*
X0053803Y0111196D01*
X0052604Y0109997D02*
X0076004Y0109997D01*
X0077203Y0108799D02*
X0051406Y0108799D01*
X0050207Y0107600D02*
X0078401Y0107600D01*
X0079600Y0106402D02*
X0049009Y0106402D01*
X0048507Y0105203D02*
X0080798Y0105203D01*
X0081997Y0104005D02*
X0048507Y0104005D01*
X0048507Y0102806D02*
X0052374Y0102806D01*
X0055988Y0102806D02*
X0082748Y0102806D01*
X0082799Y0101608D02*
X0057081Y0101608D01*
X0057081Y0100409D02*
X0082849Y0100409D01*
X0082899Y0099211D02*
X0056981Y0099211D01*
X0039583Y0098012D02*
X0038577Y0098012D01*
X0038577Y0096814D02*
X0039583Y0096814D01*
X0039583Y0095615D02*
X0037612Y0095615D01*
X0038349Y0099211D02*
X0039177Y0099211D01*
X0038683Y0100409D02*
X0037151Y0100409D01*
X0035674Y0101608D02*
X0038683Y0101608D01*
X0039382Y0102806D02*
X0034476Y0102806D01*
X0033277Y0104005D02*
X0039383Y0104005D01*
X0039383Y0105203D02*
X0032079Y0105203D01*
X0030880Y0106402D02*
X0039383Y0106402D01*
X0039383Y0107600D02*
X0029681Y0107600D01*
X0028916Y0108799D02*
X0039383Y0108799D01*
X0039383Y0109997D02*
X0028916Y0109997D01*
X0028916Y0111196D02*
X0038390Y0111196D01*
X0036759Y0112394D02*
X0028916Y0112394D01*
X0029631Y0113593D02*
X0036314Y0113593D01*
X0036370Y0114791D02*
X0029916Y0114791D01*
X0029916Y0115990D02*
X0037000Y0115990D01*
X0038162Y0117188D02*
X0029008Y0117188D01*
X0089664Y0120784D02*
X0093580Y0120784D01*
X0092382Y0119585D02*
X0090862Y0119585D01*
X0092061Y0118387D02*
X0092226Y0118387D01*
X0110899Y0135166D02*
X0112590Y0135166D01*
X0111599Y0136364D02*
X0110899Y0136364D01*
X0110899Y0137563D02*
X0111089Y0137563D01*
X0110984Y0139960D02*
X0110899Y0139960D01*
X0110899Y0141158D02*
X0111380Y0141158D01*
X0110899Y0142357D02*
X0112160Y0142357D01*
X0110815Y0143555D02*
X0113745Y0143555D01*
D20*
X0039307Y0114059D03*
X0059170Y0102003D03*
X0044174Y0088353D03*
X0061661Y0081209D03*
X0072937Y0072484D03*
X0081724Y0086103D03*
D21*
X0095561Y0083073D03*
X0095913Y0076852D03*
X0066386Y0063898D03*
X0052616Y0072320D03*
X0042370Y0070197D03*
X0039220Y0065866D03*
X0042764Y0060748D03*
X0040795Y0055630D03*
X0038433Y0045394D03*
X0047882Y0041457D03*
X0038852Y0040188D03*
X0032921Y0032008D03*
X0054969Y0034370D03*
X0057724Y0041532D03*
X0074584Y0038594D03*
X0090402Y0044606D03*
X0099876Y0049243D03*
X0093721Y0053806D03*
X0088603Y0053806D03*
X0073079Y0049725D03*
X0107724Y0044606D03*
X0099356Y0028310D03*
X0031356Y0078619D03*
X0025057Y0077438D03*
X0039614Y0082008D03*
X0035718Y0085841D03*
X0032962Y0094503D03*
X0035677Y0097781D03*
X0041583Y0100906D03*
X0049457Y0099725D03*
X0054181Y0100512D03*
X0059102Y0090079D03*
X0099482Y0101362D03*
X0108118Y0105605D03*
X0083356Y0116310D03*
X0095126Y0118229D03*
X0069983Y0110657D03*
X0054181Y0114685D03*
X0027016Y0115079D03*
X0025756Y0121110D03*
X0051819Y0132008D03*
X0078197Y0133583D03*
X0106543Y0141876D03*
D22*
X0109472Y0145394D01*
X0107787Y0145110D01*
X0107394Y0138736D01*
X0115674Y0138723D01*
X0115858Y0129110D02*
X0115992Y0128977D01*
X0113655Y0126640D01*
X0113655Y0125621D01*
X0106263Y0118229D01*
X0095126Y0118229D01*
X0090008Y0116058D02*
X0093756Y0112310D01*
X0095926Y0112310D01*
X0096441Y0111795D01*
X0096956Y0112310D01*
X0111356Y0112310D01*
X0114690Y0108977D01*
X0115992Y0108977D01*
X0101031Y0107205D02*
X0101031Y0102087D01*
X0101031Y0107205D02*
X0096441Y0111795D01*
X0072685Y0128347D02*
X0072291Y0127953D01*
X0069167Y0131077D01*
X0069167Y0144125D01*
X0078616Y0144125D01*
X0078941Y0144910D02*
X0078967Y0144936D01*
X0078941Y0144910D02*
X0078898Y0144865D01*
X0078858Y0144817D01*
X0078821Y0144767D01*
X0078786Y0144716D01*
X0078755Y0144662D01*
X0078726Y0144607D01*
X0078700Y0144550D01*
X0078678Y0144492D01*
X0078659Y0144432D01*
X0078644Y0144372D01*
X0078632Y0144311D01*
X0078623Y0144249D01*
X0078618Y0144187D01*
X0078616Y0144125D01*
X0085346Y0148184D02*
X0093627Y0148172D01*
X0098351Y0158802D02*
X0084953Y0158814D01*
X0069167Y0144936D02*
X0069167Y0144125D01*
X0096156Y0028310D02*
X0099356Y0028310D01*
D23*
X0108609Y0035857D02*
X0112156Y0032310D01*
X0108609Y0035857D02*
X0084915Y0035857D01*
X0081175Y0039597D01*
X0073104Y0031526D01*
X0048694Y0031526D01*
X0040033Y0040188D01*
X0038852Y0040188D01*
X0042370Y0042638D02*
X0042370Y0054055D01*
X0040795Y0055630D01*
X0032156Y0044978D02*
X0021898Y0055236D01*
X0042370Y0042638D02*
X0051031Y0034370D01*
X0054969Y0034370D01*
X0038433Y0028188D02*
X0037756Y0027510D01*
X0077756Y0043016D02*
X0081175Y0039597D01*
X0077756Y0043016D02*
X0077756Y0050166D01*
X0076228Y0074134D02*
X0073561Y0076802D01*
X0060112Y0076802D01*
X0052807Y0084106D01*
X0052807Y0089288D01*
D24*
X0086477Y0085514D02*
X0095139Y0076852D01*
X0095913Y0076852D01*
X0096504Y0077062D01*
X0086477Y0085514D02*
X0085677Y0104567D01*
X0072291Y0117953D01*
X0071622Y0118622D02*
X0062843Y0118622D01*
X0051819Y0129646D01*
X0051819Y0126965D01*
X0039307Y0114059D01*
X0070315Y0127931D02*
X0070738Y0129506D01*
X0072291Y0127953D01*
X0072321Y0127983D01*
X0078222Y0127983D01*
X0090008Y0116197D01*
X0090008Y0116058D01*
X0083356Y0116310D02*
X0082556Y0115510D01*
X0089926Y0133977D02*
X0078967Y0144936D01*
X0089926Y0133977D02*
X0099457Y0133977D01*
D25*
X0039307Y0114953D02*
X0039307Y0114059D01*
X0027016Y0115079D02*
X0027016Y0107579D01*
X0035677Y0098917D01*
X0035677Y0097781D01*
X0049457Y0099725D02*
X0049457Y0092638D01*
X0052807Y0089288D01*
X0046307Y0089572D02*
X0045846Y0089110D01*
X0044931Y0089110D01*
X0044174Y0088353D02*
X0043432Y0089095D01*
X0031740Y0089095D01*
X0028591Y0085945D01*
X0028591Y0085551D01*
X0026622Y0083583D01*
X0028197Y0081614D01*
X0028197Y0071378D01*
X0033709Y0066260D01*
X0033709Y0063504D01*
X0040795Y0056417D01*
X0040795Y0055630D01*
X0042764Y0060748D02*
X0048276Y0055236D01*
X0051337Y0055236D01*
X0056849Y0049725D01*
X0060156Y0049725D01*
X0059693Y0049262D01*
X0059693Y0043132D01*
X0057724Y0041532D01*
X0060156Y0049725D02*
X0073079Y0049725D01*
X0075047Y0052874D02*
X0077756Y0050166D01*
X0080956Y0050509D02*
X0076228Y0055236D01*
X0060417Y0055236D01*
X0055299Y0060354D01*
X0051819Y0060354D01*
X0043945Y0068229D01*
X0043945Y0068622D01*
X0042370Y0070197D01*
X0048669Y0071378D02*
X0048669Y0066654D01*
X0052606Y0062717D01*
X0057280Y0062717D01*
X0062398Y0057599D01*
X0077803Y0057599D01*
X0085756Y0049646D01*
X0085756Y0049110D01*
X0098562Y0049110D01*
X0099876Y0049243D01*
X0107724Y0044606D02*
X0109693Y0046575D01*
X0109693Y0100906D01*
X0108118Y0102480D01*
X0108118Y0105605D01*
X0059102Y0091654D02*
X0059102Y0090079D01*
X0059102Y0091654D02*
X0054969Y0096181D01*
X0054969Y0100512D01*
X0054181Y0100512D01*
X0041189Y0091851D02*
X0040402Y0091063D01*
X0025479Y0091063D01*
X0023866Y0089451D01*
X0039614Y0082008D02*
X0048669Y0071378D01*
X0043157Y0065866D02*
X0039220Y0065866D01*
X0043157Y0065866D02*
X0051031Y0057992D01*
X0053318Y0057992D01*
X0058436Y0052874D01*
X0075047Y0052874D01*
X0080956Y0050509D02*
X0080956Y0043510D01*
X0085490Y0038977D01*
X0115992Y0038977D01*
X0112156Y0032310D02*
X0115490Y0028977D01*
X0115992Y0028977D01*
X0063630Y0052480D02*
X0058436Y0052874D01*
X0066386Y0063898D02*
X0066972Y0064484D01*
X0071937Y0064484D01*
X0075937Y0068484D01*
X0032921Y0044213D02*
X0032156Y0044978D01*
X0032921Y0044213D02*
X0032921Y0032008D01*
X0025756Y0121110D02*
X0026556Y0121910D01*
D26*
X0039307Y0114059D02*
X0041583Y0113358D01*
X0041583Y0100906D01*
X0046307Y0106811D02*
X0046307Y0089572D01*
X0044931Y0089110D02*
X0048956Y0089110D01*
X0048956Y0084414D01*
X0060899Y0072471D01*
X0072924Y0072471D01*
X0072937Y0072484D01*
X0044931Y0089110D02*
X0044174Y0088353D01*
X0046307Y0106811D02*
X0054181Y0114685D01*
X0071622Y0118622D02*
X0072291Y0117953D01*
X0051819Y0129646D02*
X0051819Y0132008D01*
X0099482Y0101362D02*
X0099850Y0097362D01*
X0100956Y0096257D01*
X0107331Y0089882D01*
X0107331Y0056285D01*
X0107356Y0056260D01*
X0107356Y0050030D01*
X0101932Y0044606D01*
X0090402Y0044606D01*
X0100956Y0096257D02*
X0100956Y0102011D01*
X0101031Y0102087D01*
D27*
X0102950Y0079151D02*
X0102460Y0078662D01*
X0096504Y0077062D01*
M02*
