G75*
%MOIN*%
%OFA0B0*%
%FSLAX25Y25*%
%IPPOS*%
%LPD*%
%AMOC8*
5,1,8,0,0,1.08239X$1,22.5*
%
%ADD10OC8,0.07600*%
%ADD11R,0.04537X0.18710*%
%ADD12R,0.06899X0.13986*%
%ADD13C,0.07600*%
%ADD14C,0.06506*%
%ADD15C,0.04956*%
%ADD16C,0.07391*%
%ADD17C,0.05620*%
%ADD18R,0.05324X0.10443*%
%ADD19C,0.04100*%
%ADD20C,0.03750*%
%ADD21OC8,0.03600*%
D10*
X0028000Y0025984D03*
X0038000Y0025984D03*
X0048000Y0025984D03*
X0058000Y0025984D03*
X0068000Y0025984D03*
X0078000Y0025984D03*
D11*
X0099457Y0133977D03*
X0107331Y0133977D03*
D12*
X0116780Y0154449D03*
X0090008Y0154449D03*
D13*
X0115992Y0138977D03*
X0115992Y0128977D03*
X0115992Y0118977D03*
X0115992Y0108977D03*
X0115992Y0098977D03*
X0115992Y0088977D03*
X0115992Y0078977D03*
X0115992Y0068977D03*
X0115992Y0058977D03*
X0115992Y0048977D03*
X0115992Y0038977D03*
X0115992Y0028977D03*
X0072291Y0117953D03*
X0072291Y0127953D03*
D14*
X0026622Y0083583D03*
X0036465Y0073740D03*
X0026622Y0063898D03*
D15*
X0102950Y0059466D03*
X0102950Y0069309D03*
X0102950Y0079151D03*
D16*
X0055781Y0155542D03*
X0028222Y0155542D03*
D17*
X0032159Y0144912D03*
X0051844Y0144912D03*
D18*
X0059367Y0144936D03*
X0069167Y0144936D03*
X0078967Y0144936D03*
D19*
X0082567Y0155686D03*
X0055767Y0155686D03*
D20*
X0039307Y0114059D03*
X0059170Y0102003D03*
X0044174Y0088353D03*
X0061661Y0081209D03*
X0072937Y0072484D03*
X0081724Y0086103D03*
D21*
X0095561Y0083073D03*
X0095913Y0076852D03*
X0066386Y0063898D03*
X0052616Y0072320D03*
X0042370Y0070197D03*
X0039220Y0065866D03*
X0042764Y0060748D03*
X0040795Y0055630D03*
X0038433Y0045394D03*
X0047882Y0041457D03*
X0038852Y0040188D03*
X0032921Y0032008D03*
X0054969Y0034370D03*
X0057724Y0041532D03*
X0074584Y0038594D03*
X0090402Y0044606D03*
X0099876Y0049243D03*
X0093721Y0053806D03*
X0088603Y0053806D03*
X0073079Y0049725D03*
X0107724Y0044606D03*
X0099356Y0028310D03*
X0031356Y0078619D03*
X0025057Y0077438D03*
X0039614Y0082008D03*
X0035718Y0085841D03*
X0032962Y0094503D03*
X0035677Y0097781D03*
X0041583Y0100906D03*
X0049457Y0099725D03*
X0054181Y0100512D03*
X0059102Y0090079D03*
X0099482Y0101362D03*
X0108118Y0105605D03*
X0083356Y0116310D03*
X0095126Y0118229D03*
X0069983Y0110657D03*
X0054181Y0114685D03*
X0027016Y0115079D03*
X0025756Y0121110D03*
X0051819Y0132008D03*
X0078197Y0133583D03*
X0106543Y0141876D03*
M02*
